<?xml version="1.0" encoding="UTF-8" standalone="no"?>
<!-- Created with Inkscape (http://www.inkscape.org/) -->

<svg
   width="128"
   height="128"
   viewBox="0 0 33.866666 33.866667"
   version="1.1"
   id="svg5"
   inkscape:version="1.2.1 (9c6d41e410, 2022-07-14)"
   sodipodi:docname="script.svg"
   inkscape:export-filename="script.png"
   inkscape:export-xdpi="96"
   inkscape:export-ydpi="96"
   xmlns:inkscape="http://www.inkscape.org/namespaces/inkscape"
   xmlns:sodipodi="http://sodipodi.sourceforge.net/DTD/sodipodi-0.dtd"
   xmlns="http://www.w3.org/2000/svg"
   xmlns:svg="http://www.w3.org/2000/svg">
  <sodipodi:namedview
     id="namedview7"
     pagecolor="#ffffff"
     bordercolor="#111111"
     borderopacity="1"
     inkscape:showpageshadow="0"
     inkscape:pageopacity="0"
     inkscape:pagecheckerboard="1"
     inkscape:deskcolor="#d1d1d1"
     inkscape:document-units="mm"
     showgrid="false"
     inkscape:zoom="2.71877"
     inkscape:cx="-139.21737"
     inkscape:cy="25.746937"
     inkscape:window-width="3440"
     inkscape:window-height="1369"
     inkscape:window-x="-8"
     inkscape:window-y="-8"
     inkscape:window-maximized="1"
     inkscape:current-layer="layer1" />
  <defs
     id="defs2" />
  <g
     inkscape:label="Layer 1"
     inkscape:groupmode="layer"
     id="layer1">
    <path
       id="text1402"
       style="font-style:normal;font-variant:normal;font-weight:800;font-stretch:normal;font-size:16.6329px;font-family:Oxanium;-inkscape-font-specification:'Oxanium Ultra-Bold';text-align:end;text-anchor:end;fill:#ffffff;stroke-width:0.346518;paint-order:stroke markers fill"
       d="M 2.4556641 20.204451 L 2.4556641 31.68127 L 9.8076701 31.68127 L 9.8076701 29.519128 L 4.8508667 29.519128 L 4.8508667 20.204451 L 2.4556641 20.204451 z M 11.470618 20.204451 L 11.470618 28.886609 C 11.470618 30.749492 12.402396 31.68127 14.265279 31.68127 L 17.725016 31.68127 C 19.587899 31.68127 20.519161 30.749492 20.519161 28.886609 L 20.519161 20.204451 L 18.123958 20.204451 L 18.123958 29.019934 C 18.123958 29.352592 17.957938 29.519128 17.625281 29.519128 L 14.365015 29.519128 C 14.032357 29.519128 13.86582 29.352592 13.86582 29.019934 L 13.86582 20.204451 L 11.470618 20.204451 z M 25.492501 20.204451 L 22.08289 31.232202 L 22.382096 31.68127 L 24.37784 31.68127 L 25.076506 29.35273 L 29.567187 29.35273 L 30.265853 31.68127 L 32.262113 31.68127 L 32.56132 31.232202 L 29.151709 20.204451 L 25.492501 20.204451 z M 27.189038 22.366593 L 27.455172 22.366593 L 28.918648 27.190072 L 25.725045 27.190072 L 27.189038 22.366593 z " />
    <path
       id="path1529"
       style="fill:#ffffff;stroke-width:0.529167;paint-order:stroke markers fill"
       d="M 12.627136,2.1854881 5.0363852,9.7762388 v 8.3328252 h 1.9461344 v -7.17889 L 13.331486,4.5812075 H 26.884147 V 18.109064 h 1.946134 V 2.1854881 Z"
       sodipodi:nodetypes="ccccccccccc" />
    <rect
       style="fill:#f9f9f9;stroke-width:0.529167;paint-order:stroke markers fill"
       id="rect1682"
       width="10.508771"
       height="1.7514619"
       x="14.69919"
       y="6.9164772" />
    <rect
       style="fill:#f9f9f9;stroke-width:0.640559;paint-order:stroke markers fill"
       id="rect1682-6"
       width="15.39874"
       height="1.7514619"
       x="9.8092213"
       y="10.799293" />
    <rect
       style="fill:#f9f9f9;stroke-width:0.640559;paint-order:stroke markers fill"
       id="rect1682-6-9"
       width="15.39874"
       height="1.7514619"
       x="9.8092213"
       y="14.682109" />
  </g>
</svg>
